{
  "accessors": [
    {
      "bufferView": 2,
      "componentType": 5126,
      "count": 17648,
      "max": [
        2.2973966598510742,
        1.1491614580154419,
        2.0055553913116455
      ],
      "min": [
        -2.2973978519439697,
        -0.6667134165763855,
        -2.9270024299621582
      ],
      "type": "VEC3"
    },
    {
      "bufferView": 2,
      "byteOffset": 211776,
      "componentType": 5126,
      "count": 17648,
      "max": [
        1,
        1,
        1
      ],
      "min": [
        -1,
        -1,
        -1
      ],
      "type": "VEC3"
    },
    {
      "bufferView": 1,
      "componentType": 5126,
      "count": 17648,
      "max": [
        1,
        1
      ],
      "min": [
        0.0097529888153076172,
        0.0078125
      ],
      "type": "VEC2"
    },
    {
      "bufferView": 0,
      "componentType": 5125,
      "count": 55935,
      "max": [
        17647
      ],
      "min": [
        0
      ],
      "type": "SCALAR"
    },
    {
      "bufferView": 2,
      "byteOffset": 423552,
      "componentType": 5126,
      "count": 4088,
      "max": [
        2.0069577693939209,
        0.023445969447493553,
        1.8272955417633057
      ],
      "min": [
        -2.0069587230682373,
        -0.46727031469345093,
        -1.2242047786712646
      ],
      "type": "VEC3"
    },
    {
      "bufferView": 2,
      "byteOffset": 472608,
      "componentType": 5126,
      "count": 4088,
      "max": [
        0.9998779296875,
        0.99986922740936279,
        1
      ],
      "min": [
        -0.9998779296875,
        -0.99986922740936279,
        -1
      ],
      "type": "VEC3"
    },
    {
      "bufferView": 1,
      "byteOffset": 141184,
      "componentType": 5126,
      "count": 4088,
      "max": [
        0.9921875,
        1
      ],
      "min": [
        0.20754969120025635,
        0.0078125
      ],
      "type": "VEC2"
    },
    {
      "bufferView": 0,
      "byteOffset": 223740,
      "componentType": 5125,
      "count": 9588,
      "max": [
        4087
      ],
      "min": [
        0
      ],
      "type": "SCALAR"
    }
  ],
  "asset": {
    "extras": {
      "author": "Pete Tinsley (https://sketchfab.com/hyakudojo)",
      "license": "CC-BY-4.0 (http://creativecommons.org/licenses/by/4.0/)",
      "source": "https://sketchfab.com/3d-models/replicant-aircraft-47bc4b23c8784a2aa9c541b821fd7f0a",
      "title": "Replicant Aircraft"
    },
    "generator": "Sketchfab-8.77.1",
    "version": "2.0"
  },
  "bufferViews": [
    {
      "buffer": 0,
      "byteLength": 262092,
      "byteOffset": 0,
      "name": "floatBufferViews",
      "target": 34963
    },
    {
      "buffer": 0,
      "byteLength": 173888,
      "byteOffset": 262092,
      "byteStride": 8,
      "name": "floatBufferViews",
      "target": 34962
    },
    {
      "buffer": 0,
      "byteLength": 521664,
      "byteOffset": 435980,
      "byteStride": 12,
      "name": "floatBufferViews",
      "target": 34962
    }
  ],
  "buffers": [
    {
      "byteLength": 957644,
      "uri": "scene.bin"
    }
  ],
  "images": [
    {
      "uri": "textures/Material.002_baseColor.png"
    }
  ],
  "materials": [
    {
      "doubleSided": true,
      "name": "Material.002",
      "pbrMetallicRoughness": {
        "baseColorFactor": [
          1,
          1,
          1,
          1
        ],
        "baseColorTexture": {
          "index": 0,
          "texCoord": 0
        },
        "metallicFactor": 0.11089666798948067,
        "roughnessFactor": 0.38989590983936695
      }
    },
    {
      "doubleSided": true,
      "name": "Material.001",
      "pbrMetallicRoughness": {
        "baseColorFactor": [
          0.45661311984694847,
          0.45661311984694847,
          0.45661311984694847,
          1
        ],
        "baseColorTexture": {
          "index": 0,
          "texCoord": 0
        },
        "metallicFactor": 0.27465709259999999,
        "roughnessFactor": 0.68102555350000005
      }
    }
  ],
  "meshes": [
    {
      "primitives": [
        {
          "attributes": {
            "NORMAL": 1,
            "POSITION": 0,
            "TEXCOORD_0": 2
          },
          "indices": 3,
          "material": 0,
          "mode": 4
        }
      ]
    },
    {
      "primitives": [
        {
          "attributes": {
            "NORMAL": 5,
            "POSITION": 4,
            "TEXCOORD_0": 6
          },
          "indices": 7,
          "material": 1,
          "mode": 4
        }
      ]
    }
  ],
  "nodes": [
    {
      "children": [
        1
      ],
      "name": "RootNode (gltf orientation matrix)",
      "rotation": [
        -0.70710678118654746,
        -0,
        -0,
        0.70710678118654757
      ]
    },
    {
      "children": [
        2
      ],
      "name": "RootNode (model correction matrix)"
    },
    {
      "children": [
        3
      ],
      "name": "root"
    },
    {
      "children": [
        4,
        6
      ],
      "matrix": [
        1,
        0,
        0,
        0,
        0,
        2.2204460492503131e-16,
        1,
        0,
        0,
        -1,
        2.2204460492503131e-16,
        0,
        0,
        0,
        0,
        1
      ],
      "name": "GLTF_SceneRootNode"
    },
    {
      "children": [
        5
      ],
      "matrix": [
        1,
        0,
        0,
        0,
        0,
        0.76404494047164917,
        0,
        0,
        0,
        0,
        1.2306516170501709,
        0,
        0,
        0,
        0,
        1
      ],
      "name": "Shogin.gmdl-0_0"
    },
    {
      "mesh": 0,
      "name": ""
    },
    {
      "children": [
        7
      ],
      "matrix": [
        1,
        0,
        0,
        0,
        0,
        1,
        0,
        0,
        0,
        0,
        1.2306516170501709,
        0,
        0,
        0,
        0,
        1
      ],
      "name": "Shogin.gmdl-1_1"
    },
    {
      "mesh": 1,
      "name": ""
    }
  ],
  "samplers": [
    {
      "magFilter": 9729,
      "minFilter": 9987,
      "wrapS": 10497,
      "wrapT": 10497
    }
  ],
  "scene": 0,
  "scenes": [
    {
      "name": "OSG_Scene",
      "nodes": [
        0
      ]
    }
  ],
  "textures": [
    {
      "sampler": 0,
      "source": 0
    }
  ]
}

